<?xml version="1.0" encoding="utf-8"?>
<!-- Generator: Adobe Illustrator 25.0.0, SVG Export Plug-In . SVG Version: 6.00 Build 0)  -->
<svg version="1.1" id="Layer_1" xmlns="http://www.w3.org/2000/svg" xmlns:xlink="http://www.w3.org/1999/xlink" x="0px" y="0px"
	 viewBox="0 0 24 24" style="enable-background:new 0 0 24 24;" xml:space="preserve">
<style type="text/css">
	.st0{fill:#3E3A39;}
</style>
<path class="st0" d="M23,2H1C0.4,2,0,2.4,0,3v18c0,0.6,0.4,1,1,1h22c0.6,0,1-0.4,1-1V3C24,2.4,23.6,2,23,2 M22,20h-2v-1h-5v1H2V4h20
	V20z M10.3,9.7C10.3,8.8,11.1,8,12,8c0.9,0,1.7,0.8,1.7,1.7c0,0.9-0.8,1.7-1.7,1.7S10.3,10.7,10.3,9.7 M5.7,11.3
	C5.7,10.6,6.3,10,7,10c0.7,0,1.3,0.6,1.3,1.3c0,0.7-0.6,1.3-1.3,1.3S5.7,12,5.7,11.3 M15.7,11.3c0-0.7,0.6-1.3,1.3-1.3
	c0.7,0,1.3,0.6,1.3,1.3v0c0,0.7-0.6,1.3-1.3,1.3S15.7,12,15.7,11.3 M20,15.1V16h-4h-2h-4H8H4v-0.9c0-0.9,1.6-1.7,3-1.7
	c0.6,0,1.1,0.1,1.6,0.3c0.8-0.7,2.1-1.2,3.4-1.2s2.6,0.5,3.4,1.2c0.5-0.2,1-0.3,1.6-0.3C18.5,13.4,20,14.2,20,15.1z"/>
</svg>
